<?xml version="1.0" encoding="utf-8"?>
<!-- Svg Vector Icons : http://www.onlinewebfonts.com/icon -->
<!DOCTYPE svg PUBLIC "-//W3C//DTD SVG 1.1//EN" "http://www.w3.org/Graphics/SVG/1.1/DTD/svg11.dtd">
<svg version="1.1" xmlns="http://www.w3.org/2000/svg" xmlns:xlink="http://www.w3.org/1999/xlink" x="0px" y="0px" viewBox="0 0 256 256" enable-background="new 0 0 256 256" xml:space="preserve">
<metadata> Svg Vector Icons : http://www.onlinewebfonts.com/icon </metadata>
<g><g><g><path fill="#000000" d="M208.5,11.9c-1.2,0.4-3,1.2-3.9,1.8c-1,0.7-8.6,7.9-17,16.2l-15.2,15l2.5,2.6c1.4,1.4,10.4,10.3,20,19.8l17.5,17.1L227.8,69c8.5-8.5,16-16.4,16.7-17.5c1.6-2.7,2-7.6,0.8-11.2c-0.7-2.3-1.8-3.5-12.9-14.6c-13.1-13.1-14-13.8-19.2-14.2C211.8,11.4,209.7,11.6,208.5,11.9z"/><path fill="#000000" d="M98.2,119.1c-35.4,35.1-64.4,64.1-64.5,64.3c-0.1,0.2,8.7,9.2,19.4,20L72.7,223l54-53.4c29.7-29.4,58.9-58.3,64.8-64.2l10.9-10.8l-9-8.9c-4.9-4.9-13.9-13.7-19.9-19.6l-10.9-10.7L98.2,119.1z"/><path fill="#000000" d="M27.2,191.3c-0.5,1.5-4.6,13.1-9.1,25.9C13.6,230,10,240.8,10,241.3c0,0.6,0.6,1.5,1.2,2.2c1,1,1.4,1.1,2.9,0.9c1.5-0.2,53.2-16.3,53.5-16.6c0,0-8.8-8.9-19.7-19.6l-19.8-19.5L27.2,191.3z"/></g></g></g>
</svg>